<svg xmlns="http://www.w3.org/2000/svg" version="1.1" xmlns:xlink="http://www.w3.org/1999/xlink" xmlns:svgjs="http://svgjs.com/svgjs" width="1440" height="560" preserveAspectRatio="none" viewBox="0 0 1440 560"><g clip-path="url(&quot;#SvgjsClipPath1000&quot;)" fill="none"><rect width="1440" height="560" x="0" y="0" fill="#0e2a47"></rect><circle r="93.335" cx="-39.07" cy="-82.13" stroke="#365aa3" stroke-opacity="0.25" stroke-width="2"></circle><circle r="93.335" cx="347.93" cy="353.19" stroke="#365aa3" stroke-opacity="0.25" stroke-width="2"></circle><circle r="93.335" cx="698.57" cy="660.12" stroke="#365aa3" stroke-opacity="0.25" stroke-width="2"></circle><circle r="120.735" cx="489.88" cy="192.03" stroke="#365aa3" stroke-opacity="0.25" stroke-width="2"></circle><circle r="154.59" cx="329.45" cy="45.74" stroke="#365aa3" stroke-opacity="0.25" stroke-width="2"></circle><circle r="89.58" cx="1038.76" cy="471.29" stroke="#365aa3" stroke-opacity="0.25" stroke-width="2"></circle><circle r="95.2" cx="445.22" cy="278.2" stroke="#365aa3" stroke-opacity="0.25" stroke-width="2"></circle><circle r="75.625" cx="591.48" cy="259.17" stroke="#365aa3" stroke-opacity="0.25" stroke-width="2"></circle><circle r="54.355" cx="866.06" cy="365.08" stroke="#365aa3" stroke-opacity="0.25" stroke-width="2"></circle><circle r="55.62" cx="1341.88" cy="4.96" stroke="#365aa3" stroke-opacity="0.25" stroke-width="2"></circle><circle r="118.69" cx="551.56" cy="432.85" stroke="#365aa3" stroke-opacity="0.25" stroke-width="2"></circle><circle r="79.955" cx="1013.89" cy="316.39" stroke="#365aa3" stroke-opacity="0.25" stroke-width="2"></circle><circle r="160.375" cx="404.66" cy="5.06" stroke="#365aa3" stroke-opacity="0.25" stroke-width="2"></circle><circle r="152.655" cx="1376.8" cy="555.59" stroke="#365aa3" stroke-opacity="0.25" stroke-width="2"></circle><circle r="117.53" cx="279.34" cy="102.75" stroke="#365aa3" stroke-opacity="0.25" stroke-width="2"></circle><circle r="99.975" cx="744.35" cy="48.72" stroke="#365aa3" stroke-opacity="0.25" stroke-width="2"></circle><circle r="48.5" cx="561.24" cy="367.67" stroke="#365aa3" stroke-opacity="0.25" stroke-width="2"></circle><circle r="172.875" cx="239.72" cy="205.02" stroke="#365aa3" stroke-opacity="0.25" stroke-width="2"></circle><circle r="110.69" cx="427.82" cy="12.57" stroke="#365aa3" stroke-opacity="0.25" stroke-width="2"></circle><circle r="109.85" cx="1160" cy="257.01" stroke="#365aa3" stroke-opacity="0.25" stroke-width="2"></circle><circle r="66.11" cx="42.13" cy="136.92" stroke="#365aa3" stroke-opacity="0.25" stroke-width="2"></circle><circle r="183.875" cx="1273" cy="79.51" stroke="#365aa3" stroke-opacity="0.25" stroke-width="2"></circle><circle r="167.415" cx="836.2" cy="110.73" stroke="#365aa3" stroke-opacity="0.25" stroke-width="2"></circle><circle r="155.84" cx="1124.13" cy="193.41" stroke="#365aa3" stroke-opacity="0.25" stroke-width="2"></circle><circle r="174.125" cx="1056.44" cy="242.09" stroke="#365aa3" stroke-opacity="0.25" stroke-width="2"></circle><circle r="158.94" cx="36.61" cy="175.5" stroke="#365aa3" stroke-opacity="0.25" stroke-width="2"></circle><circle r="168.47" cx="400.06" cy="422.62" stroke="#365aa3" stroke-opacity="0.25" stroke-width="2"></circle><circle r="80.02" cx="958.87" cy="421.33" stroke="#365aa3" stroke-opacity="0.25" stroke-width="2"></circle><circle r="104.01" cx="377.94" cy="85.1" stroke="#365aa3" stroke-opacity="0.25" stroke-width="2"></circle><circle r="116.215" cx="315.15" cy="370.92" stroke="#365aa3" stroke-opacity="0.25" stroke-width="2"></circle><circle r="104.47" cx="166.03" cy="51.6" stroke="#365aa3" stroke-opacity="0.25" stroke-width="2"></circle><circle r="140.75" cx="1080.98" cy="30.39" stroke="#365aa3" stroke-opacity="0.25" stroke-width="2"></circle><circle r="157.785" cx="622.04" cy="41.3" stroke="#365aa3" stroke-opacity="0.25" stroke-width="2"></circle><circle r="161.125" cx="186.79" cy="465.61" stroke="#365aa3" stroke-opacity="0.25" stroke-width="2"></circle><circle r="127.805" cx="24.62" cy="225.8" stroke="#365aa3" stroke-opacity="0.25" stroke-width="2"></circle><circle r="61.57" cx="859.87" cy="226.78" stroke="#365aa3" stroke-opacity="0.25" stroke-width="2"></circle><circle r="145.22" cx="964.56" cy="384.38" stroke="#365aa3" stroke-opacity="0.25" stroke-width="2"></circle><circle r="112.66" cx="88.78" cy="489.55" stroke="#365aa3" stroke-opacity="0.25" stroke-width="2"></circle><circle r="72.52" cx="846.69" cy="503.88" stroke="#365aa3" stroke-opacity="0.25" stroke-width="2"></circle><circle r="168.66" cx="1180.72" cy="514.67" stroke="#365aa3" stroke-opacity="0.25" stroke-width="2"></circle></g><defs><clipPath id="SvgjsClipPath1000"><rect width="1440" height="560" x="0" y="0"></rect></clipPath></defs></svg>