<svg xmlns="http://www.w3.org/2000/svg" version="1.1" xmlns:xlink="http://www.w3.org/1999/xlink" xmlns:svgjs="http://svgjs.com/svgjs" width="1440" height="560" preserveAspectRatio="none" viewBox="0 0 1440 560"><g mask="url(&quot;#SvgjsMask1000&quot;)" fill="none"><rect width="1440" height="560" x="0" y="0" fill="#0e2a47"></rect><path d="M 0,226 C 57.6,193.6 172.8,77.2 288,64 C 403.2,50.8 460.8,155.8 576,160 C 691.2,164.2 748.8,72 864,85 C 979.2,98 1036.8,236.4 1152,225 C 1267.2,213.6 1382.4,67.4 1440,28L1440 560L0 560z" fill="#184a7e"></path><path d="M 0,449 C 96,442 288,405.2 480,414 C 672,422.8 768,504.8 960,493 C 1152,481.2 1344,382.6 1440,355L1440 560L0 560z" fill="#2264ab"></path></g><defs><mask id="SvgjsMask1000"><rect width="1440" height="560" fill="#ffffff"></rect></mask></defs></svg>